<svg t="1700500503860" class="icon" viewBox="0 0 1025 1024" version="1.1" xmlns="http://www.w3.org/2000/svg" p-id="15139" width="200" height="200"><path d="M896.3072 601.856a47.8208 47.8208 0 0 0-60.928 28.7744 343.808 343.808 0 0 1-208.7936 209.6128C456.192 901.12 268.6464 821.4528 194.1504 661.76h89.2928L142.6432 522.24 1.28 661.76h89.9072c0.6144 1.7408 1.1776 2.9184 1.792 4.7104a444.9792 444.9792 0 0 0 415.8464 289.4336 447.1296 447.1296 0 0 0 191.0784-43.4688 436.9408 436.9408 0 0 0 225.9968-250.0608 47.8208 47.8208 0 0 0-29.5936-60.5184zM119.6032 428.6976a48.384 48.384 0 0 0 62.1056-27.0336A343.04 343.04 0 0 1 395.8784 191.488a348.16 348.16 0 0 1 427.1104 180.2752h-79.3088l140.8 139.7248 140.8-139.7248h-99.9936a438.6816 438.6816 0 0 0-269.1584-268.3392C426.5984 22.4256 172.8512 142.1824 91.1872 370.5856a47.36 47.36 0 0 0 28.416 58.112z m352.5632-90.4192a33.1264 33.1264 0 0 0-54.9888 24.6784V675.84a32.1536 32.1536 0 0 0 8.2432 21.76 33.024 33.024 0 0 0 46.08 2.9184l179.8144-156.16c1.1776-1.1776 2.3552-1.792 2.9696-2.9696a32.256 32.256 0 0 0-2.9696-45.7728z" p-id="15140"></path></svg>
